<svg xmlns="http://www.w3.org/2000/svg" width="1080" height="1080"><path fill="#FEEA0D" d="M0 0h1080v1080H0z"/><path fill="#101115" d="M458 373h167c-3.807 7.614-7.634 15.024-11.875 22.375-5.272 9.227-10.335 18.55-15.312 27.938-5.361 10.104-10.798 20.156-16.389 30.136-3.097 5.548-6.166 11.113-9.236 16.676l-1.044 1.89a2851 2851 0 0 0-13.832 25.36 1105 1105 0 0 1-12.687 22.875c-5.186 9.1-10.164 18.303-15.082 27.55a1016 1016 0 0 1-14.629 26.477c-4.268 7.506-8.36 15.1-12.414 22.723a1074 1074 0 0 1-15.586 28.277c-4.268 7.506-8.36 15.1-12.414 22.723a1130 1130 0 0 1-15.84 28.792 1290 1290 0 0 0-12.323 22.18l-1.29 2.364-1.13 2.08C443 705 443 705 442 706c-2.139.097-4.281.122-6.422.12l-2.057.003c-2.291.002-4.582-.004-6.873-.01l-4.907.001q-6.68-.001-13.363-.013c-4.65-.006-9.3-.006-13.95-.008q-13.216-.005-26.434-.021-15.042-.015-30.086-.022-30.954-.016-61.908-.05c1.469-3.745 3.12-7.256 5.02-10.805l1.829-3.422 1.964-3.648 1.007-1.878c5.075-9.455 10.29-18.82 15.608-28.142 3.805-6.689 7.434-13.453 10.989-20.278 3.883-7.444 7.966-14.77 12.062-22.098 3.127-5.61 6.23-11.232 9.334-16.854l1.039-1.882c5.26-9.53 10.464-19.089 15.636-28.667 3.52-6.515 7.094-12.997 10.705-19.461 3.489-6.26 6.902-12.56 10.307-18.865 4.18-7.74 8.402-15.453 12.691-23.133 3.49-6.26 6.903-12.56 10.309-18.867a1970 1970 0 0 1 12.487-22.794 5968 5968 0 0 0 12.866-23.215 3230 3230 0 0 0 14.022-25.678 2058 2058 0 0 1 11.438-20.938l1.09-1.968c3.81-6.835 7.714-13.612 11.597-20.407"/><path fill="#101114" d="M339.585 372.886h2.87q4.675.002 9.35.016l6.498.005q8.537.006 17.075.024 8.717.014 17.434.02 17.094.016 34.188.049-1.881 3.786-3.768 7.57l-1.061 2.137c-3.374 6.765-6.988 13.378-10.671 19.98l-2.072 3.736a7867 7867 0 0 1-4.286 7.72 6821 6821 0 0 0-9.322 16.845l-2.017 3.652a2738 2738 0 0 0-13.49 24.735 1107 1107 0 0 1-12.688 22.875c-5.108 8.97-10.027 18.03-14.878 27.142a1903 1903 0 0 1-14.872 27.358 2868 2868 0 0 0-14.75 26.937 2074 2074 0 0 1-13.344 24.317 5525 5525 0 0 0-11.634 21.005 3592 3592 0 0 0-15.641 28.676 1666 1666 0 0 1-10.481 19.088 5409 5409 0 0 0-11.153 20.121l-2.078 3.762-2.962 5.364-1.727 3.128c-3.062 5.603-6.078 11.23-9.105 16.852H78c9.31-18.622 9.31-18.622 14.187-27.563l1.673-3.079c4.285-7.861 8.69-15.651 13.123-23.43 4.633-8.168 9.065-16.438 13.474-24.728 4.74-8.906 9.626-17.716 14.629-26.477 4.268-7.506 8.36-15.1 12.414-22.723a1074 1074 0 0 1 15.586-28.277c4.603-8.094 8.996-16.295 13.367-24.515 4.852-9.119 9.86-18.136 14.978-27.107 3.797-6.677 7.421-13.428 10.968-20.24 4.005-7.68 8.197-15.248 12.446-22.795a502 502 0 0 0 3.21-5.847C236.618 415.257 270.985 389.155 308 378c10.55-2.916 20.596-5.158 31.585-5.114"/><path fill="#101115" d="M689.636 372.074c4.622.119 9.245.13 13.869.152 8.742.059 17.48.215 26.22.406 9.957.213 19.913.317 29.87.412 20.471.198 40.938.532 61.405.956-1.395 4.33-3.013 8.112-5.238 12.086l-.96 1.727q-1.552 2.784-3.115 5.562-2.193 3.937-4.382 7.875l-1.111 1.994c-3.348 6.014-6.621 12.068-9.882 18.131a1101 1101 0 0 1-12.687 22.875c-5.186 9.1-10.164 18.303-15.082 27.55a1016 1016 0 0 1-14.629 26.477c-4.605 8.098-9 16.303-13.373 24.526a889 889 0 0 1-12.979 23.572c-5.081 8.895-9.95 17.89-14.75 26.937-4.953 9.335-9.943 18.64-15.117 27.856a958 958 0 0 0-5.542 10.044q-2.109 3.868-4.223 7.73-1.035 1.895-2.062 3.791c-5.934 10.947-12.202 21.676-20.43 31.08l-1.433 1.655A563 563 0 0 1 660 660l-1.766 1.988c-16.741 17.714-39.972 30.194-62.672 38.324l-2.703.987c-15.87 5.458-31.464 6.127-48.082 5.994q-3.124-.009-6.25-.013c-5.423-.011-10.846-.04-16.27-.074-5.557-.031-11.115-.044-16.673-.06-10.861-.031-21.723-.083-32.584-.146 1.395-4.33 3.013-8.112 5.238-12.086l.96-1.727q1.553-2.784 3.114-5.562 2.195-3.937 4.383-7.875l1.111-1.994c3.348-6.014 6.621-12.068 9.881-18.131a1101 1101 0 0 1 12.688-22.875c5.186-9.1 10.164-18.303 15.082-27.55 4.74-8.906 9.626-17.716 14.629-26.477 4.268-7.506 8.36-15.1 12.414-22.723a1074 1074 0 0 1 15.586-28.277c4.268-7.506 8.36-15.1 12.414-22.723 4.555-8.565 9.19-17.075 14-25.5 4.763-8.345 9.36-16.768 13.875-25.25 5.6-10.52 11.32-20.964 17.131-31.368a1499 1499 0 0 0 13.668-25.053 133 133 0 0 1 3.01-5.307c1.472-2.854 2.345-5.182 3.239-8.214 7.083-20.274 26.24-16.777 44.213-16.234M968.41 388.871c17.312 14.231 31.121 32.66 33.405 55.678.902 11.936 1.216 24.055-2.815 35.451l-1.066 3.188C993.103 496.708 986.01 506.948 976 517l-2.11 2.215c-14.906 14.588-35.848 20.195-56.14 20.347-20.262-.255-38.722-6.675-53.75-20.562l-2.805-2.562c-16.368-15.615-24.922-35.411-25.596-57.875-.3-24.448 8.256-44.822 25.026-62.688 28.759-27.704 75.816-31.743 107.785-7.004"/><path fill="#292514" d="M199 484h1c.392 2.664.406 4.392-1.113 6.668-1.25 1.483-2.566 2.912-3.887 4.332l-1-2c.996-2.164.996-2.164 2.438-4.625l1.433-2.477z"/><path fill="#221F14" d="m855 402 2 1c-1.88 3.571-3.17 5.547-7 7 3.875-6.875 3.875-6.875 5-8"/></svg>